<svg xmlns="http://www.w3.org/2000/svg" width="14.001" height="14.001" viewBox="0 0 14.001 14.001">
  <g id="鼠标_橡皮" transform="translate(0 0)">
    <g id="排除_3" data-name="排除 3" transform="translate(-2 -2)" fill="rgba(255,255,255,0.8)">
      <path d="M9,16a7,7,0,1,1,7-7A7.008,7.008,0,0,1,9,16ZM9,5a4,4,0,1,0,4,4A4.005,4.005,0,0,0,9,5Z" stroke="none"/>
      <path d="M 9 15.00020027160645 C 12.30852031707764 15.00020027160645 15.00020027160645 12.30852031707764 15.00020027160645 9 C 15.00020027160645 5.691480159759521 12.30852031707764 2.999799966812134 9 2.999799966812134 C 5.691480159759521 2.999799966812134 2.999799966812134 5.691480159759521 2.999799966812134 9 C 2.999799966812134 12.30852031707764 5.691480159759521 15.00020027160645 9 15.00020027160645 M 9 3.999500036239624 C 11.75679016113281 3.999500036239624 13.99960041046143 6.242710113525391 13.99960041046143 9 C 13.99960041046143 11.75728988647461 11.75679016113281 14.0004997253418 9 14.0004997253418 C 6.242710113525391 14.0004997253418 3.999500036239624 11.75728988647461 3.999500036239624 9 C 3.999500036239624 6.242710113525391 6.242710113525391 3.999500036239624 9 3.999500036239624 M 9 16.00020027160645 C 5.140079975128174 16.00020027160645 1.999799966812134 12.85991954803467 1.999799966812134 9 C 1.999799966812134 5.140079975128174 5.140079975128174 1.999799966812134 9 1.999799966812134 C 12.85991954803467 1.999799966812134 16.00020027160645 5.140079975128174 16.00020027160645 9 C 16.00020027160645 12.85991954803467 12.85991954803467 16.00020027160645 9 16.00020027160645 Z M 9 4.999499797821045 C 6.794119834899902 4.999499797821045 4.999499797821045 6.794119834899902 4.999499797821045 9 C 4.999499797821045 11.2058801651001 6.794119834899902 13.0004997253418 9 13.0004997253418 C 11.20538997650146 13.0004997253418 12.99960041046143 11.2058801651001 12.99960041046143 9 C 12.99960041046143 6.794119834899902 11.20538997650146 4.999499797821045 9 4.999499797821045 Z" stroke="none" fill="rgba(38,43,45,0.7)"/>
    </g>
  </g>
</svg>
